<?xml version="1.0" encoding="UTF-8" standalone="no"?>
<!-- Created with Inkscape (http://www.inkscape.org/) -->

<svg
   width="52.319695"
   height="52.461235"
   viewBox="0 0 13.842919 13.880368"
   version="1.1"
   id="svg5"
   xml:space="preserve"
   xmlns="http://www.w3.org/2000/svg"
   xmlns:svg="http://www.w3.org/2000/svg"><defs
     id="defs2" /><g
     id="layer1"
     transform="translate(-42.998566,-35.631554)"><g
       id="g3805"
       transform="translate(2.0417234,4.5070377)"><rect
         style="fill:none;fill-opacity:1;stroke:#00bce8;stroke-width:0.457147;stroke-dasharray:none;stroke-opacity:1"
         id="rect4245"
         width="11.038782"
         height="11.03878"
         x="42.363354"
         y="32.566868"
         ry="1.4056805" /><g
         id="use4259"
         transform="matrix(0,0.07040041,-0.02551721,0,99.57009,48.686143)"
         style="fill:#808080;stroke:#00bce8;stroke-width:4.67285;stroke-dasharray:none;stroke-opacity:1"><g
           id="use4408-3"
           transform="matrix(0.06997502,0,0,0.0556926,-331.87142,2084.3387)">
					<path
   class="st1"
   d="m 3313.13,-5569.41 v 437.07 c 0,193.55 -56.88,350.62 -127.06,350.62 -70.18,0 -127.06,-157.07 -127.06,-350.62 v -437.07 c 0,-193.55 56.88,-350.47 127.06,-350.47 70.18,0 127.06,156.92 127.06,350.47 z"
   id="path42"
   style="fill:#00bce8" />
					<path
   class="st1"
   d="m 2910.36,-5569.41 v 437.07 c 0,193.55 -56.88,350.62 -127.06,350.62 -70.18,0 -127.06,-157.07 -127.06,-350.62 v -437.07 c 0,-193.55 56.88,-350.47 127.06,-350.47 70.18,0 127.06,156.92 127.06,350.47 z"
   id="path44"
   style="fill:#00bce8" />
					<path
   class="st1"
   d="m 2507.62,-5569.41 v 437.07 c 0,193.55 -56.88,350.62 -127.06,350.62 -70.18,0 -127.06,-157.07 -127.06,-350.62 v -437.07 c 0,-193.55 56.88,-350.47 127.06,-350.47 70.18,0 127.06,156.92 127.06,350.47 z"
   id="path46"
   style="fill:#00bce8" />
					<path
   class="st1"
   d="m 2104.87,-5569.41 v 437.07 c 0,193.55 -56.88,350.62 -127.06,350.62 -70.18,0 -127.06,-157.07 -127.06,-350.62 v -437.07 c 0,-193.55 56.88,-350.47 127.06,-350.47 70.18,0 127.06,156.92 127.06,350.47 z"
   id="path48"
   style="fill:#00bce8" />
				</g></g><path
         style="fill:none;fill-rule:evenodd;stroke:#000000;stroke-width:0.228574;stroke-linecap:butt;stroke-linejoin:miter;stroke-dasharray:none;stroke-opacity:1"
         d="m 44.042723,40.255257 c 0,0 2.653795,0.308644 3.430891,-3.005345 0.777089,-3.313976 4.0336,-2.918017 4.0336,-2.918017"
         id="path4265" /><rect
         style="fill:none;fill-opacity:1;stroke:#000000;stroke-width:0.152382;stroke-dasharray:none"
         id="rect4267"
         width="0.84185815"
         height="0.84185809"
         x="49.84584"
         y="35.482727"
         ry="0.10720237" /><rect
         style="fill:none;fill-opacity:1;stroke:#000000;stroke-width:0.152382;stroke-dasharray:none"
         id="use4269"
         width="0.84185815"
         height="0.84185809"
         x="48.695057"
         y="37.214165"
         ry="0.10720237" /><rect
         style="fill:none;fill-opacity:1;stroke:#000000;stroke-width:0.152382;stroke-dasharray:none"
         id="use4271"
         width="0.84185815"
         height="0.84185809"
         x="47.416859"
         y="39.138531"
         ry="0.10720237" /><rect
         style="fill:#000000;fill-opacity:1;stroke:#000000;stroke-width:0.136718;stroke-dasharray:none"
         id="use4275"
         width="0.75532061"
         height="0.75532061"
         x="45.696609"
         y="36.335022"
         ry="0.096182659" /><rect
         style="fill:#000000;fill-opacity:1;stroke:#000000;stroke-width:0.136718;stroke-dasharray:none"
         id="use4277"
         width="0.75532061"
         height="0.75532061"
         x="44.673107"
         y="38.106785"
         ry="0.096182659" /><path
         style="fill:none;fill-rule:evenodd;stroke:#00bce8;stroke-width:0.228574;stroke-linecap:butt;stroke-linejoin:miter;stroke-dasharray:none;stroke-opacity:1"
         d="m 44.042723,40.255257 c 0,0 2.653795,0.308644 3.430891,-3.005345 0.777089,-3.313976 4.0336,-2.918017 4.0336,-2.918017"
         id="path4361" /><rect
         style="fill:#000000;fill-opacity:1;stroke:#000000;stroke-width:0.136718;stroke-dasharray:none"
         id="rect4369"
         width="0.75532061"
         height="0.75532061"
         x="46.621788"
         y="34.496403"
         ry="0.096182659" /><g
         id="g2195"
         transform="matrix(0,0.07040041,-0.02551721,0,87.351273,48.686143)"
         style="fill:#808080;stroke:#00bce8;stroke-width:4.67285;stroke-dasharray:none;stroke-opacity:1"><g
           id="g2193"
           transform="matrix(0.06997502,0,0,0.0556926,-331.87142,2084.3387)">
					<path
   class="st1"
   d="m 3313.13,-5569.41 v 437.07 c 0,193.55 -56.88,350.62 -127.06,350.62 -70.18,0 -127.06,-157.07 -127.06,-350.62 v -437.07 c 0,-193.55 56.88,-350.47 127.06,-350.47 70.18,0 127.06,156.92 127.06,350.47 z"
   id="path2185"
   style="fill:#00bce8" />
					<path
   class="st1"
   d="m 2910.36,-5569.41 v 437.07 c 0,193.55 -56.88,350.62 -127.06,350.62 -70.18,0 -127.06,-157.07 -127.06,-350.62 v -437.07 c 0,-193.55 56.88,-350.47 127.06,-350.47 70.18,0 127.06,156.92 127.06,350.47 z"
   id="path2187"
   style="fill:#00bce8" />
					<path
   class="st1"
   d="m 2507.62,-5569.41 v 437.07 c 0,193.55 -56.88,350.62 -127.06,350.62 -70.18,0 -127.06,-157.07 -127.06,-350.62 v -437.07 c 0,-193.55 56.88,-350.47 127.06,-350.47 70.18,0 127.06,156.92 127.06,350.47 z"
   id="path2189"
   style="fill:#00bce8" />
					<path
   class="st1"
   d="m 2104.87,-5569.41 v 437.07 c 0,193.55 -56.88,350.62 -127.06,350.62 -70.18,0 -127.06,-157.07 -127.06,-350.62 v -437.07 c 0,-193.55 56.88,-350.47 127.06,-350.47 70.18,0 127.06,156.92 127.06,350.47 z"
   id="path2191"
   style="fill:#00bce8" />
				</g></g><g
         id="g2207"
         transform="matrix(0.07040041,0,0,0.02551721,58.638991,-1.3895475)"
         style="fill:#808080;stroke:#00bce8;stroke-width:4.67285;stroke-dasharray:none;stroke-opacity:1"><g
           id="g2205"
           transform="matrix(0.06997502,0,0,0.0556926,-331.87142,2084.3387)">
					<path
   class="st1"
   d="m 3313.13,-5569.41 v 437.07 c 0,193.55 -56.88,350.62 -127.06,350.62 -70.18,0 -127.06,-157.07 -127.06,-350.62 v -437.07 c 0,-193.55 56.88,-350.47 127.06,-350.47 70.18,0 127.06,156.92 127.06,350.47 z"
   id="path2197"
   style="fill:#00bce8" />
					<path
   class="st1"
   d="m 2910.36,-5569.41 v 437.07 c 0,193.55 -56.88,350.62 -127.06,350.62 -70.18,0 -127.06,-157.07 -127.06,-350.62 v -437.07 c 0,-193.55 56.88,-350.47 127.06,-350.47 70.18,0 127.06,156.92 127.06,350.47 z"
   id="path2199"
   style="fill:#00bce8" />
					<path
   class="st1"
   d="m 2507.62,-5569.41 v 437.07 c 0,193.55 -56.88,350.62 -127.06,350.62 -70.18,0 -127.06,-157.07 -127.06,-350.62 v -437.07 c 0,-193.55 56.88,-350.47 127.06,-350.47 70.18,0 127.06,156.92 127.06,350.47 z"
   id="path2201"
   style="fill:#00bce8" />
					<path
   class="st1"
   d="m 2104.87,-5569.41 v 437.07 c 0,193.55 -56.88,350.62 -127.06,350.62 -70.18,0 -127.06,-157.07 -127.06,-350.62 v -437.07 c 0,-193.55 56.88,-350.47 127.06,-350.47 70.18,0 127.06,156.92 127.06,350.47 z"
   id="path2203"
   style="fill:#00bce8" />
				</g></g><g
         id="g2219"
         transform="matrix(0.07040041,0,0,0.02551721,58.638991,-13.645813)"
         style="fill:#808080;stroke:#00bce8;stroke-width:4.67285;stroke-dasharray:none;stroke-opacity:1"><g
           id="g2217"
           transform="matrix(0.06997502,0,0,0.0556926,-331.87142,2084.3387)">
					<path
   class="st1"
   d="m 3313.13,-5569.41 v 437.07 c 0,193.55 -56.88,350.62 -127.06,350.62 -70.18,0 -127.06,-157.07 -127.06,-350.62 v -437.07 c 0,-193.55 56.88,-350.47 127.06,-350.47 70.18,0 127.06,156.92 127.06,350.47 z"
   id="path2209"
   style="fill:#00bce8" />
					<path
   class="st1"
   d="m 2910.36,-5569.41 v 437.07 c 0,193.55 -56.88,350.62 -127.06,350.62 -70.18,0 -127.06,-157.07 -127.06,-350.62 v -437.07 c 0,-193.55 56.88,-350.47 127.06,-350.47 70.18,0 127.06,156.92 127.06,350.47 z"
   id="path2211"
   style="fill:#00bce8" />
					<path
   class="st1"
   d="m 2507.62,-5569.41 v 437.07 c 0,193.55 -56.88,350.62 -127.06,350.62 -70.18,0 -127.06,-157.07 -127.06,-350.62 v -437.07 c 0,-193.55 56.88,-350.47 127.06,-350.47 70.18,0 127.06,156.92 127.06,350.47 z"
   id="path2213"
   style="fill:#00bce8" />
					<path
   class="st1"
   d="m 2104.87,-5569.41 v 437.07 c 0,193.55 -56.88,350.62 -127.06,350.62 -70.18,0 -127.06,-157.07 -127.06,-350.62 v -437.07 c 0,-193.55 56.88,-350.47 127.06,-350.47 70.18,0 127.06,156.92 127.06,350.47 z"
   id="path2215"
   style="fill:#00bce8" />
				</g></g><text
         xml:space="preserve"
         style="font-style:normal;font-weight:normal;font-size:1.81091px;line-height:1.13182px;font-family:sans-serif;letter-spacing:0px;word-spacing:0px;fill:#000000;fill-opacity:1;stroke:none;stroke-width:0.0452729px;stroke-linecap:butt;stroke-linejoin:miter;stroke-opacity:1"
         x="44.676853"
         y="42.320442"
         id="text400"><tspan
           id="tspan398"
           style="font-style:normal;font-variant:normal;font-weight:bold;font-stretch:normal;font-family:Lato;-inkscape-font-specification:'Lato Bold';stroke-width:0.0452729px"
           x="44.676853"
           y="42.320442">em<tspan
   style="font-weight:normal"
   id="tspan504">learn</tspan></tspan></text></g></g></svg>
