<?xml version="1.0" encoding="UTF-8" standalone="no"?>
<!-- Created with Inkscape (http://www.inkscape.org/) -->

<svg
   width="400"
   height="600"
   viewBox="0 0 105.83333 158.75"
   version="1.1"
   id="svg5"
   xml:space="preserve"
   inkscape:version="1.2.2 (b0a8486541, 2022-12-01)"
   sodipodi:docname="logo-master.svg"
   xmlns:inkscape="http://www.inkscape.org/namespaces/inkscape"
   xmlns:sodipodi="http://sodipodi.sourceforge.net/DTD/sodipodi-0.dtd"
   xmlns="http://www.w3.org/2000/svg"
   xmlns:svg="http://www.w3.org/2000/svg"><sodipodi:namedview
     id="namedview7"
     pagecolor="#ffffff"
     bordercolor="#666666"
     borderopacity="1.0"
     inkscape:showpageshadow="2"
     inkscape:pageopacity="0.0"
     inkscape:pagecheckerboard="0"
     inkscape:deskcolor="#d1d1d1"
     inkscape:document-units="mm"
     showgrid="false"
     inkscape:zoom="3.9876559"
     inkscape:cx="218.17329"
     inkscape:cy="86.140833"
     inkscape:window-width="1918"
     inkscape:window-height="1058"
     inkscape:window-x="0"
     inkscape:window-y="20"
     inkscape:window-maximized="1"
     inkscape:current-layer="layer1" /><defs
     id="defs2" /><g
     inkscape:label="Layer 1"
     inkscape:groupmode="layer"
     id="layer1"
     transform="translate(-22.526767,-22.940036)"><rect
       style="opacity:1;fill:#ffffff;fill-opacity:1;stroke:#000000;stroke-width:0.0569512;stroke-dasharray:none"
       id="rect4470"
       width="18.065037"
       height="16.748684"
       x="38.961922"
       y="29.712408" /><rect
       style="fill:none;fill-opacity:1;stroke:#00bce8;stroke-width:0.457147;stroke-dasharray:none;stroke-opacity:1"
       id="rect4245"
       width="11.038782"
       height="11.03878"
       x="42.363354"
       y="32.566868"
       ry="1.4056805"
       inkscape:export-filename="logo-small-512px.png"
       inkscape:export-xdpi="1024.9758"
       inkscape:export-ydpi="1024.9758" /><g
       id="use4259"
       transform="matrix(0,0.07040041,-0.02551721,0,99.57009,48.686143)"
       style="fill:#808080;stroke:#00bce8;stroke-width:4.67285;stroke-dasharray:none;stroke-opacity:1"><g
         id="use4408-3"
         transform="matrix(0.06997502,0,0,0.0556926,-331.87142,2084.3387)">
					<path
   class="st1"
   d="m 3313.13,-5569.41 v 437.07 c 0,193.55 -56.88,350.62 -127.06,350.62 -70.18,0 -127.06,-157.07 -127.06,-350.62 v -437.07 c 0,-193.55 56.88,-350.47 127.06,-350.47 70.18,0 127.06,156.92 127.06,350.47 z"
   id="path42"
   style="fill:#00bce8" />
					<path
   class="st1"
   d="m 2910.36,-5569.41 v 437.07 c 0,193.55 -56.88,350.62 -127.06,350.62 -70.18,0 -127.06,-157.07 -127.06,-350.62 v -437.07 c 0,-193.55 56.88,-350.47 127.06,-350.47 70.18,0 127.06,156.92 127.06,350.47 z"
   id="path44"
   style="fill:#00bce8" />
					<path
   class="st1"
   d="m 2507.62,-5569.41 v 437.07 c 0,193.55 -56.88,350.62 -127.06,350.62 -70.18,0 -127.06,-157.07 -127.06,-350.62 v -437.07 c 0,-193.55 56.88,-350.47 127.06,-350.47 70.18,0 127.06,156.92 127.06,350.47 z"
   id="path46"
   style="fill:#00bce8" />
					<path
   class="st1"
   d="m 2104.87,-5569.41 v 437.07 c 0,193.55 -56.88,350.62 -127.06,350.62 -70.18,0 -127.06,-157.07 -127.06,-350.62 v -437.07 c 0,-193.55 56.88,-350.47 127.06,-350.47 70.18,0 127.06,156.92 127.06,350.47 z"
   id="path48"
   style="fill:#00bce8" />
				</g></g><path
       style="fill:none;fill-rule:evenodd;stroke:#000000;stroke-width:0.228574;stroke-linecap:butt;stroke-linejoin:miter;stroke-dasharray:none;stroke-opacity:1"
       d="m 44.042723,40.255257 c 0,0 2.653795,0.308644 3.430891,-3.005345 0.777089,-3.313976 4.0336,-2.918017 4.0336,-2.918017"
       id="path4265"
       sodipodi:nodetypes="czc" /><rect
       style="fill:none;fill-opacity:1;stroke:#000000;stroke-width:0.152382;stroke-dasharray:none"
       id="rect4267"
       width="0.84185815"
       height="0.84185809"
       x="49.84584"
       y="35.482727"
       ry="0.10720237" /><rect
       style="fill:none;fill-opacity:1;stroke:#000000;stroke-width:0.152382;stroke-dasharray:none"
       id="use4269"
       width="0.84185815"
       height="0.84185809"
       x="48.695057"
       y="37.214165"
       ry="0.10720237" /><rect
       style="fill:none;fill-opacity:1;stroke:#000000;stroke-width:0.152382;stroke-dasharray:none"
       id="use4271"
       width="0.84185815"
       height="0.84185809"
       x="47.416859"
       y="39.138531"
       ry="0.10720237" /><rect
       style="fill:#000000;fill-opacity:1;stroke:#000000;stroke-width:0.136718;stroke-dasharray:none"
       id="use4275"
       width="0.75532061"
       height="0.75532061"
       x="45.696609"
       y="36.335022"
       ry="0.096182659" /><rect
       style="fill:#000000;fill-opacity:1;stroke:#000000;stroke-width:0.136718;stroke-dasharray:none"
       id="use4277"
       width="0.75532061"
       height="0.75532061"
       x="44.673107"
       y="38.106785"
       ry="0.096182659" /><path
       style="fill:none;fill-rule:evenodd;stroke:#00bce8;stroke-width:0.228574;stroke-linecap:butt;stroke-linejoin:miter;stroke-dasharray:none;stroke-opacity:1"
       d="m 44.042723,40.255257 c 0,0 2.653795,0.308644 3.430891,-3.005345 0.777089,-3.313976 4.0336,-2.918017 4.0336,-2.918017"
       id="path4361"
       sodipodi:nodetypes="czc" /><rect
       style="fill:#000000;fill-opacity:1;stroke:#000000;stroke-width:0.136718;stroke-dasharray:none"
       id="rect4369"
       width="0.75532061"
       height="0.75532061"
       x="46.621788"
       y="34.496403"
       ry="0.096182659" /><rect
       style="fill:none;fill-opacity:1;stroke:#000000;stroke-width:0.457147;stroke-dasharray:none"
       id="rect4394"
       width="11.038782"
       height="11.03878"
       x="64.666862"
       y="32.566868"
       ry="1.4056805" /><g
       id="g4404"
       transform="matrix(0.07757104,0,0,0.02845578,82.000938,-21.093403)"
       style="stroke-width:4.8651;stroke-dasharray:none"><path
         style="fill:none;fill-rule:evenodd;stroke:#000000;stroke-width:4.8651;stroke-linecap:round;stroke-linejoin:miter;stroke-dasharray:none;stroke-opacity:1"
         d="m -114.29658,1885.5659 v -27.5021"
         id="path4396" /><path
         style="fill:none;fill-rule:evenodd;stroke:#000000;stroke-width:4.8651;stroke-linecap:round;stroke-linejoin:miter;stroke-dasharray:none;stroke-opacity:1"
         d="m -139.63753,1885.5659 v -27.5021"
         id="path4398" /><path
         style="fill:none;fill-rule:evenodd;stroke:#000000;stroke-width:4.8651;stroke-linecap:round;stroke-linejoin:miter;stroke-dasharray:none;stroke-opacity:1"
         d="m -164.97848,1885.5659 v -27.5021"
         id="path4400" /><path
         style="fill:none;fill-rule:evenodd;stroke:#000000;stroke-width:4.8651;stroke-linecap:round;stroke-linejoin:miter;stroke-dasharray:none;stroke-opacity:1"
         d="m -190.31943,1885.5659 v -27.5021"
         id="path4402" /></g><g
       id="use4406"
       transform="matrix(-0.07720044,0,0,-0.03060122,58.428002,101.33947)"
       style="stroke-width:4.67285;stroke-dasharray:none"><path
         style="fill:none;fill-rule:evenodd;stroke:#000000;stroke-width:4.67285;stroke-linecap:round;stroke-linejoin:miter;stroke-dasharray:none;stroke-opacity:1"
         d="m -114.29658,1885.5659 v -27.5021"
         id="path6012" /><path
         style="fill:none;fill-rule:evenodd;stroke:#000000;stroke-width:4.67285;stroke-linecap:round;stroke-linejoin:miter;stroke-dasharray:none;stroke-opacity:1"
         d="m -139.63753,1885.5659 v -27.5021"
         id="path6014" /><path
         style="fill:none;fill-rule:evenodd;stroke:#000000;stroke-width:4.67285;stroke-linecap:round;stroke-linejoin:miter;stroke-dasharray:none;stroke-opacity:1"
         d="m -164.97848,1885.5659 v -27.5021"
         id="path6016" /><path
         style="fill:none;fill-rule:evenodd;stroke:#000000;stroke-width:4.67285;stroke-linecap:round;stroke-linejoin:miter;stroke-dasharray:none;stroke-opacity:1"
         d="m -190.31943,1885.5659 v -27.5021"
         id="path6018" /></g><g
       id="use4408"
       transform="matrix(0,0.07732441,-0.02802687,0,128.53251,49.863378)"
       style="fill:#808080;stroke:#404040;stroke-width:4.67285;stroke-dasharray:none"><path
         style="fill:none;fill-rule:evenodd;stroke:#000000;stroke-width:4.67285;stroke-linecap:round;stroke-linejoin:miter;stroke-dasharray:none;stroke-opacity:1"
         d="m -114.29658,1885.5659 v -27.5021"
         id="path6022" /><path
         style="fill:none;fill-rule:evenodd;stroke:#000000;stroke-width:4.67285;stroke-linecap:round;stroke-linejoin:miter;stroke-dasharray:none;stroke-opacity:1"
         d="m -139.63753,1885.5659 v -27.5021"
         id="path6024" /><path
         style="fill:none;fill-rule:evenodd;stroke:#000000;stroke-width:4.67285;stroke-linecap:round;stroke-linejoin:miter;stroke-dasharray:none;stroke-opacity:1"
         d="m -164.97848,1885.5659 v -27.5021"
         id="path6026" /><path
         style="fill:none;fill-rule:evenodd;stroke:#000000;stroke-width:4.67285;stroke-linecap:round;stroke-linejoin:miter;stroke-dasharray:none;stroke-opacity:1"
         d="m -190.31943,1885.5659 v -27.5021"
         id="path6028" /></g><g
       id="use4410"
       transform="matrix(0,-0.07737437,0.02703324,0,13.668051,26.301518)"
       style="stroke-width:4.67285;stroke-dasharray:none"><path
         style="fill:none;fill-rule:evenodd;stroke:#000000;stroke-width:4.67285;stroke-linecap:round;stroke-linejoin:miter;stroke-dasharray:none;stroke-opacity:1"
         d="m -114.29658,1885.5659 v -27.5021"
         id="path6032" /><path
         style="fill:none;fill-rule:evenodd;stroke:#000000;stroke-width:4.67285;stroke-linecap:round;stroke-linejoin:miter;stroke-dasharray:none;stroke-opacity:1"
         d="m -139.63753,1885.5659 v -27.5021"
         id="path6034" /><path
         style="fill:none;fill-rule:evenodd;stroke:#000000;stroke-width:4.67285;stroke-linecap:round;stroke-linejoin:miter;stroke-dasharray:none;stroke-opacity:1"
         d="m -164.97848,1885.5659 v -27.5021"
         id="path6036" /><path
         style="fill:none;fill-rule:evenodd;stroke:#000000;stroke-width:4.67285;stroke-linecap:round;stroke-linejoin:miter;stroke-dasharray:none;stroke-opacity:1"
         d="m -190.31943,1885.5659 v -27.5021"
         id="path6038" /></g><path
       style="fill:none;fill-rule:evenodd;stroke:#000000;stroke-width:0.228574;stroke-linecap:butt;stroke-linejoin:miter;stroke-dasharray:none;stroke-opacity:1"
       d="m 66.346235,40.923139 c 0,0 2.653796,0.308643 3.430885,-3.00534 0.777089,-3.313976 4.033607,-2.918022 4.033607,-2.918022"
       id="path4412"
       sodipodi:nodetypes="czc" /><rect
       style="fill:none;fill-opacity:1;stroke:#000000;stroke-width:0.152382;stroke-dasharray:none"
       id="rect4414"
       width="0.84185815"
       height="0.84185809"
       x="72.149353"
       y="36.150612"
       ry="0.10720237" /><rect
       style="fill:none;fill-opacity:1;stroke:#000000;stroke-width:0.152382;stroke-dasharray:none"
       id="use4416"
       width="0.84185815"
       height="0.84185809"
       x="70.998573"
       y="37.882042"
       ry="0.10720237" /><rect
       style="fill:none;fill-opacity:1;stroke:#000000;stroke-width:0.152382;stroke-dasharray:none"
       id="use4418"
       width="0.84185815"
       height="0.84185809"
       x="69.72036"
       y="39.806416"
       ry="0.10720237" /><rect
       style="fill:#000000;fill-opacity:1;stroke:#000000;stroke-width:0.136718;stroke-dasharray:none"
       id="use4420"
       width="0.75532061"
       height="0.75532061"
       x="68.000114"
       y="37.002907"
       ry="0.096182659" /><rect
       style="fill:#000000;fill-opacity:1;stroke:#000000;stroke-width:0.136718;stroke-dasharray:none"
       id="use4422"
       width="0.75532061"
       height="0.75532061"
       x="66.976624"
       y="38.77467"
       ry="0.096182659" /><path
       style="fill:none;fill-rule:evenodd;stroke:#000000;stroke-width:0.228574;stroke-linecap:butt;stroke-linejoin:miter;stroke-dasharray:none;stroke-opacity:1"
       d="m 66.346235,40.923139 c 0,0 2.653796,0.308643 3.430885,-3.00534 0.777089,-3.313976 4.033607,-2.918022 4.033607,-2.918022"
       id="path4430"
       sodipodi:nodetypes="czc" /><rect
       style="fill:#000000;fill-opacity:1;stroke:#000000;stroke-width:0.136718;stroke-dasharray:none"
       id="rect4432"
       width="0.75532061"
       height="0.75532061"
       x="68.925301"
       y="35.164288"
       ry="0.096182659"
       inkscape:export-filename="logo-vis.png"
       inkscape:export-xdpi="302.7468"
       inkscape:export-ydpi="302.7468" /><text
       xml:space="preserve"
       style="font-style:normal;font-weight:normal;font-size:2.60914px;line-height:1.63072px;font-family:sans-serif;letter-spacing:0px;word-spacing:0px;fill:#000000;fill-opacity:1;stroke:none;stroke-width:0.0652286px;stroke-linecap:butt;stroke-linejoin:miter;stroke-opacity:1"
       x="83.796967"
       y="36.418419"
       id="text6978"><tspan
         sodipodi:role="line"
         id="tspan6976"
         style="stroke-width:0.0652286px"
         x="83.796967"
         y="36.418419">Powered by</tspan></text><rect
       style="fill:none;fill-opacity:1;stroke:#000000;stroke-width:0.457147;stroke-dasharray:none"
       id="rect1952"
       width="11.038782"
       height="11.03878"
       x="64.666862"
       y="50.176048"
       ry="1.4056805" /><g
       id="g1962"
       transform="matrix(0.07757104,0,0,0.02845578,82.000938,-3.4842217)"
       style="stroke-width:4.8651;stroke-dasharray:none"><path
         style="fill:none;fill-rule:evenodd;stroke:#000000;stroke-width:4.8651;stroke-linecap:round;stroke-linejoin:miter;stroke-dasharray:none;stroke-opacity:1"
         d="m -114.29658,1885.5659 v -27.5021"
         id="path1954" /><path
         style="fill:none;fill-rule:evenodd;stroke:#000000;stroke-width:4.8651;stroke-linecap:round;stroke-linejoin:miter;stroke-dasharray:none;stroke-opacity:1"
         d="m -139.63753,1885.5659 v -27.5021"
         id="path1956" /><path
         style="fill:none;fill-rule:evenodd;stroke:#000000;stroke-width:4.8651;stroke-linecap:round;stroke-linejoin:miter;stroke-dasharray:none;stroke-opacity:1"
         d="m -164.97848,1885.5659 v -27.5021"
         id="path1958" /><path
         style="fill:none;fill-rule:evenodd;stroke:#000000;stroke-width:4.8651;stroke-linecap:round;stroke-linejoin:miter;stroke-dasharray:none;stroke-opacity:1"
         d="m -190.31943,1885.5659 v -27.5021"
         id="path1960" /></g><g
       id="g1972"
       transform="matrix(-0.07720044,0,0,-0.03060122,58.428002,118.94865)"
       style="stroke-width:4.67285;stroke-dasharray:none"><path
         style="fill:none;fill-rule:evenodd;stroke:#000000;stroke-width:4.67285;stroke-linecap:round;stroke-linejoin:miter;stroke-dasharray:none;stroke-opacity:1"
         d="m -114.29658,1885.5659 v -27.5021"
         id="path1964" /><path
         style="fill:none;fill-rule:evenodd;stroke:#000000;stroke-width:4.67285;stroke-linecap:round;stroke-linejoin:miter;stroke-dasharray:none;stroke-opacity:1"
         d="m -139.63753,1885.5659 v -27.5021"
         id="path1966" /><path
         style="fill:none;fill-rule:evenodd;stroke:#000000;stroke-width:4.67285;stroke-linecap:round;stroke-linejoin:miter;stroke-dasharray:none;stroke-opacity:1"
         d="m -164.97848,1885.5659 v -27.5021"
         id="path1968" /><path
         style="fill:none;fill-rule:evenodd;stroke:#000000;stroke-width:4.67285;stroke-linecap:round;stroke-linejoin:miter;stroke-dasharray:none;stroke-opacity:1"
         d="m -190.31943,1885.5659 v -27.5021"
         id="path1970" /></g><g
       id="g1982"
       transform="matrix(0,0.07732441,-0.02802687,0,128.53251,67.472559)"
       style="fill:#808080;stroke:#404040;stroke-width:4.67285;stroke-dasharray:none"><path
         style="fill:none;fill-rule:evenodd;stroke:#000000;stroke-width:4.67285;stroke-linecap:round;stroke-linejoin:miter;stroke-dasharray:none;stroke-opacity:1"
         d="m -114.29658,1885.5659 v -27.5021"
         id="path1974" /><path
         style="fill:none;fill-rule:evenodd;stroke:#000000;stroke-width:4.67285;stroke-linecap:round;stroke-linejoin:miter;stroke-dasharray:none;stroke-opacity:1"
         d="m -139.63753,1885.5659 v -27.5021"
         id="path1976" /><path
         style="fill:none;fill-rule:evenodd;stroke:#000000;stroke-width:4.67285;stroke-linecap:round;stroke-linejoin:miter;stroke-dasharray:none;stroke-opacity:1"
         d="m -164.97848,1885.5659 v -27.5021"
         id="path1978" /><path
         style="fill:none;fill-rule:evenodd;stroke:#000000;stroke-width:4.67285;stroke-linecap:round;stroke-linejoin:miter;stroke-dasharray:none;stroke-opacity:1"
         d="m -190.31943,1885.5659 v -27.5021"
         id="path1980" /></g><g
       id="g1992"
       transform="matrix(0,-0.07737437,0.02703324,0,13.668051,43.910699)"
       style="stroke-width:4.67285;stroke-dasharray:none"><path
         style="fill:none;fill-rule:evenodd;stroke:#000000;stroke-width:4.67285;stroke-linecap:round;stroke-linejoin:miter;stroke-dasharray:none;stroke-opacity:1"
         d="m -114.29658,1885.5659 v -27.5021"
         id="path1984" /><path
         style="fill:none;fill-rule:evenodd;stroke:#000000;stroke-width:4.67285;stroke-linecap:round;stroke-linejoin:miter;stroke-dasharray:none;stroke-opacity:1"
         d="m -139.63753,1885.5659 v -27.5021"
         id="path1986" /><path
         style="fill:none;fill-rule:evenodd;stroke:#000000;stroke-width:4.67285;stroke-linecap:round;stroke-linejoin:miter;stroke-dasharray:none;stroke-opacity:1"
         d="m -164.97848,1885.5659 v -27.5021"
         id="path1988" /><path
         style="fill:none;fill-rule:evenodd;stroke:#000000;stroke-width:4.67285;stroke-linecap:round;stroke-linejoin:miter;stroke-dasharray:none;stroke-opacity:1"
         d="m -190.31943,1885.5659 v -27.5021"
         id="path1990" /></g><path
       style="fill:none;fill-rule:evenodd;stroke:#000000;stroke-width:0.228574;stroke-linecap:butt;stroke-linejoin:miter;stroke-dasharray:none;stroke-opacity:1"
       d="m 66.346235,58.53232 c 0,0 2.653796,0.308643 3.430885,-3.00534 0.777089,-3.313976 4.033607,-2.918022 4.033607,-2.918022"
       id="path1994"
       sodipodi:nodetypes="czc" /><rect
       style="fill:none;fill-opacity:1;stroke:#000000;stroke-width:0.152382;stroke-dasharray:none"
       id="rect1996"
       width="0.84185815"
       height="0.84185809"
       x="72.149353"
       y="53.759792"
       ry="0.10720237" /><rect
       style="fill:none;fill-opacity:1;stroke:#000000;stroke-width:0.152382;stroke-dasharray:none"
       id="rect1998"
       width="0.84185815"
       height="0.84185809"
       x="70.998573"
       y="55.491222"
       ry="0.10720237" /><rect
       style="fill:none;fill-opacity:1;stroke:#000000;stroke-width:0.152382;stroke-dasharray:none"
       id="rect2000"
       width="0.84185815"
       height="0.84185809"
       x="69.72036"
       y="57.415596"
       ry="0.10720237" /><rect
       style="fill:#000000;fill-opacity:1;stroke:#000000;stroke-width:0.136718;stroke-dasharray:none"
       id="rect2002"
       width="0.75532061"
       height="0.75532061"
       x="68.000114"
       y="54.612087"
       ry="0.096182659" /><rect
       style="fill:#000000;fill-opacity:1;stroke:#000000;stroke-width:0.136718;stroke-dasharray:none"
       id="rect2004"
       width="0.75532061"
       height="0.75532061"
       x="66.976624"
       y="56.38385"
       ry="0.096182659" /><path
       style="fill:none;fill-rule:evenodd;stroke:#000000;stroke-width:0.228574;stroke-linecap:butt;stroke-linejoin:miter;stroke-dasharray:none;stroke-opacity:1"
       d="m 66.346235,58.53232 c 0,0 2.653796,0.308643 3.430885,-3.00534 0.777089,-3.313976 4.033607,-2.918022 4.033607,-2.918022"
       id="path2006"
       sodipodi:nodetypes="czc" /><rect
       style="fill:#000000;fill-opacity:1;stroke:#000000;stroke-width:0.136718;stroke-dasharray:none"
       id="rect2008"
       width="0.75532061"
       height="0.75532061"
       x="68.925301"
       y="52.773468"
       ry="0.096182659"
       inkscape:export-filename="logo-vis.png"
       inkscape:export-xdpi="302.7468"
       inkscape:export-ydpi="302.7468" /><text
       xml:space="preserve"
       style="font-style:normal;font-weight:normal;font-size:7.1583px;line-height:4.47394px;font-family:sans-serif;letter-spacing:0px;word-spacing:0px;fill:#000000;fill-opacity:1;stroke:none;stroke-width:0.178958px;stroke-linecap:butt;stroke-linejoin:miter;stroke-opacity:1"
       x="80.510857"
       y="57.770016"
       id="text2068"><tspan
         sodipodi:role="line"
         id="tspan2066"
         style="font-style:normal;font-variant:normal;font-weight:bold;font-stretch:normal;font-family:Lato;-inkscape-font-specification:'Lato Bold';stroke-width:0.178958px"
         x="80.510857"
         y="57.770016">em<tspan
   style="font-weight:normal"
   id="tspan516">learn</tspan></tspan></text><text
       xml:space="preserve"
       style="font-style:normal;font-weight:normal;font-size:6.22248px;line-height:3.88905px;font-family:sans-serif;letter-spacing:0px;word-spacing:0px;fill:#000000;fill-opacity:1;stroke:none;stroke-width:0.155563px;stroke-linecap:butt;stroke-linejoin:miter;stroke-opacity:1"
       x="81.243042"
       y="42.495438"
       id="text2074"><tspan
         sodipodi:role="line"
         id="tspan2072"
         style="font-style:normal;font-variant:normal;font-weight:bold;font-stretch:normal;font-family:Lato;-inkscape-font-specification:'Lato Bold';stroke-width:0.155563px"
         x="81.243042"
         y="42.495438">em<tspan
   style="font-weight:normal"
   id="tspan514">learn</tspan></tspan></text><g
       id="g2195"
       transform="matrix(0,0.07040041,-0.02551721,0,87.351273,48.686143)"
       style="fill:#808080;stroke:#00bce8;stroke-width:4.67285;stroke-dasharray:none;stroke-opacity:1"><g
         id="g2193"
         transform="matrix(0.06997502,0,0,0.0556926,-331.87142,2084.3387)">
					<path
   class="st1"
   d="m 3313.13,-5569.41 v 437.07 c 0,193.55 -56.88,350.62 -127.06,350.62 -70.18,0 -127.06,-157.07 -127.06,-350.62 v -437.07 c 0,-193.55 56.88,-350.47 127.06,-350.47 70.18,0 127.06,156.92 127.06,350.47 z"
   id="path2185"
   style="fill:#00bce8" />
					<path
   class="st1"
   d="m 2910.36,-5569.41 v 437.07 c 0,193.55 -56.88,350.62 -127.06,350.62 -70.18,0 -127.06,-157.07 -127.06,-350.62 v -437.07 c 0,-193.55 56.88,-350.47 127.06,-350.47 70.18,0 127.06,156.92 127.06,350.47 z"
   id="path2187"
   style="fill:#00bce8" />
					<path
   class="st1"
   d="m 2507.62,-5569.41 v 437.07 c 0,193.55 -56.88,350.62 -127.06,350.62 -70.18,0 -127.06,-157.07 -127.06,-350.62 v -437.07 c 0,-193.55 56.88,-350.47 127.06,-350.47 70.18,0 127.06,156.92 127.06,350.47 z"
   id="path2189"
   style="fill:#00bce8" />
					<path
   class="st1"
   d="m 2104.87,-5569.41 v 437.07 c 0,193.55 -56.88,350.62 -127.06,350.62 -70.18,0 -127.06,-157.07 -127.06,-350.62 v -437.07 c 0,-193.55 56.88,-350.47 127.06,-350.47 70.18,0 127.06,156.92 127.06,350.47 z"
   id="path2191"
   style="fill:#00bce8" />
				</g></g><g
       id="g2207"
       transform="matrix(0.07040041,0,0,0.02551721,58.638991,-1.3895475)"
       style="fill:#808080;stroke:#00bce8;stroke-width:4.67285;stroke-dasharray:none;stroke-opacity:1"><g
         id="g2205"
         transform="matrix(0.06997502,0,0,0.0556926,-331.87142,2084.3387)">
					<path
   class="st1"
   d="m 3313.13,-5569.41 v 437.07 c 0,193.55 -56.88,350.62 -127.06,350.62 -70.18,0 -127.06,-157.07 -127.06,-350.62 v -437.07 c 0,-193.55 56.88,-350.47 127.06,-350.47 70.18,0 127.06,156.92 127.06,350.47 z"
   id="path2197"
   style="fill:#00bce8" />
					<path
   class="st1"
   d="m 2910.36,-5569.41 v 437.07 c 0,193.55 -56.88,350.62 -127.06,350.62 -70.18,0 -127.06,-157.07 -127.06,-350.62 v -437.07 c 0,-193.55 56.88,-350.47 127.06,-350.47 70.18,0 127.06,156.92 127.06,350.47 z"
   id="path2199"
   style="fill:#00bce8" />
					<path
   class="st1"
   d="m 2507.62,-5569.41 v 437.07 c 0,193.55 -56.88,350.62 -127.06,350.62 -70.18,0 -127.06,-157.07 -127.06,-350.62 v -437.07 c 0,-193.55 56.88,-350.47 127.06,-350.47 70.18,0 127.06,156.92 127.06,350.47 z"
   id="path2201"
   style="fill:#00bce8" />
					<path
   class="st1"
   d="m 2104.87,-5569.41 v 437.07 c 0,193.55 -56.88,350.62 -127.06,350.62 -70.18,0 -127.06,-157.07 -127.06,-350.62 v -437.07 c 0,-193.55 56.88,-350.47 127.06,-350.47 70.18,0 127.06,156.92 127.06,350.47 z"
   id="path2203"
   style="fill:#00bce8" />
				</g></g><g
       id="g2219"
       transform="matrix(0.07040041,0,0,0.02551721,58.638991,-13.645813)"
       style="fill:#808080;stroke:#00bce8;stroke-width:4.67285;stroke-dasharray:none;stroke-opacity:1"><g
         id="g2217"
         transform="matrix(0.06997502,0,0,0.0556926,-331.87142,2084.3387)">
					<path
   class="st1"
   d="m 3313.13,-5569.41 v 437.07 c 0,193.55 -56.88,350.62 -127.06,350.62 -70.18,0 -127.06,-157.07 -127.06,-350.62 v -437.07 c 0,-193.55 56.88,-350.47 127.06,-350.47 70.18,0 127.06,156.92 127.06,350.47 z"
   id="path2209"
   style="fill:#00bce8" />
					<path
   class="st1"
   d="m 2910.36,-5569.41 v 437.07 c 0,193.55 -56.88,350.62 -127.06,350.62 -70.18,0 -127.06,-157.07 -127.06,-350.62 v -437.07 c 0,-193.55 56.88,-350.47 127.06,-350.47 70.18,0 127.06,156.92 127.06,350.47 z"
   id="path2211"
   style="fill:#00bce8" />
					<path
   class="st1"
   d="m 2507.62,-5569.41 v 437.07 c 0,193.55 -56.88,350.62 -127.06,350.62 -70.18,0 -127.06,-157.07 -127.06,-350.62 v -437.07 c 0,-193.55 56.88,-350.47 127.06,-350.47 70.18,0 127.06,156.92 127.06,350.47 z"
   id="path2213"
   style="fill:#00bce8" />
					<path
   class="st1"
   d="m 2104.87,-5569.41 v 437.07 c 0,193.55 -56.88,350.62 -127.06,350.62 -70.18,0 -127.06,-157.07 -127.06,-350.62 v -437.07 c 0,-193.55 56.88,-350.47 127.06,-350.47 70.18,0 127.06,156.92 127.06,350.47 z"
   id="path2215"
   style="fill:#00bce8" />
				</g></g><text
       xml:space="preserve"
       style="font-style:normal;font-weight:normal;font-size:1.81091px;line-height:1.13182px;font-family:sans-serif;letter-spacing:0px;word-spacing:0px;fill:#000000;fill-opacity:1;stroke:none;stroke-width:0.0452729px;stroke-linecap:butt;stroke-linejoin:miter;stroke-opacity:1"
       x="44.676853"
       y="42.320442"
       id="text400"><tspan
         sodipodi:role="line"
         id="tspan398"
         style="font-style:normal;font-variant:normal;font-weight:bold;font-stretch:normal;font-family:Lato;-inkscape-font-specification:'Lato Bold';stroke-width:0.0452729px"
         x="44.676853"
         y="42.320442">em<tspan
   style="font-weight:normal"
   id="tspan504">learn</tspan></tspan></text></g></svg>
